HIERARCHY
ROOT hip
{
  OFFSET 0.0 0.0 0.0
  CHANNELS 6 Xposition Yposition Zposition Zrotation Yrotation Xrotation
  JOINT torso
  {
    OFFSET 0.0 0.0 0.0
    CHANNELS 3 Zrotation Xrotation Yrotation
    JOINT neck
    {
      OFFSET -31.42098999999993 328.8025209999999 74.3554680000002
      CHANNELS 3 Zrotation Xrotation Yrotation
      JOINT head
      {
        OFFSET 3.3519900000001144 303.81732099999994 206.53942900000015
        CHANNELS 3 Zrotation Xrotation Yrotation
        End Site
        {
          OFFSET 0.0 0.0 0.0
        }
      }
    }
    JOINT left_collar
    {
      OFFSET -31.42098999999993 328.8025209999999 74.3554680000002
      CHANNELS 3 Zrotation Xrotation Yrotation
      JOINT left_upper_arm
      {
        OFFSET -124.490479 -8.162841999999841 8.226441000000023
        CHANNELS 3 Zrotation Xrotation Yrotation
        JOINT left_forearm
        {
          OFFSET -253.595764 -1.5758060000000569 105.0729980000001
          CHANNELS 3 Zrotation Xrotation Yrotation
          JOINT left_hand
          {
            OFFSET -269.48803699999996 0.1478270000000066 -55.346191999999974
            CHANNELS 3 Zrotation Xrotation Yrotation
            End Site
            {
              OFFSET 0.0 0.0 0.0
            }
          }
        }
      }
    }
    JOINT right_collar
    {
      OFFSET -31.42098999999993 328.8025209999999 74.3554680000002
      CHANNELS 3 Zrotation Xrotation Yrotation
      JOINT right_upper_arm
      {
        OFFSET 162.02484099999998 0.46441600000002836 2.2303470000001653
        CHANNELS 3 Zrotation Xrotation Yrotation
        JOINT right_forearm
        {
          OFFSET 240.01246700000004 -25.835875999999985 121.34179699999959
          CHANNELS 3 Zrotation Xrotation Yrotation
          JOINT right_hand
          {
            OFFSET 252.48539699999992 18.910399999999868 -67.53466800000001
            CHANNELS 3 Zrotation Xrotation Yrotation
            End Site
            {
              OFFSET 0.0 0.0 0.0
            }
          }
        }
      }
    }
  }
}
MOTION
Frames: 16
Frame Time: 0.01
-478.9163063690794 192.09155181497079 594.7631307417283 -9.037106661509608 -8.934430076162647 -36.68632927104581 -0.7498756608500087 -0.37778286107492504 0.13576371449083505 -15.992077742328439 -1.9398616989535864 11.091131075519902 0.0 0.0 0.0 6.427415353144028 -0.6577128821762626 8.886700659139812 37.263775575702844 14.45061172851001 3.8142401364758665 56.69174532972857 0.30904357371528596 -23.808082392280312 0.0 0.0 0.0 1.107143987617401 -0.11159068750019675 7.67064846907424 -34.83140121746737 15.8659612583517 -5.574816023787197 -33.80756892830388 1.084744498881059 43.769002906555166 0.0 0.0 0.0
-477.6782934305157 193.00137123108613 594.9234648000784 -8.748450831379277 -8.654590579368012 -36.9459177794463 -0.7343178802366594 -0.41952947169424293 0.12847321259614639 -15.97323068625689 -1.961941389481562 11.079826357351802 0.0 0.0 0.0 6.400349008154388 -0.662321746648406 8.927261190452246 37.25840762903914 14.360030110151031 4.043602057155374 56.66505116777037 0.23981900059273545 -23.679866195874542 0.0 0.0 0.0 1.1119471259166587 -0.11265045457220395 7.723699008440631 -34.86264143454551 15.600146262403218 -6.15306368531305 -34.40054235911516 1.113874210334427 43.56972509928727 0.0 0.0 0.0
-476.4780734814497 193.89445874675232 595.0556546581895 -8.461654514221328 -8.375783182722719 -37.19055460546396 -0.7194276341598355 -0.46148370678625383 0.1213071882248973 -15.954912763603861 -1.9816365160658713 11.06868762841281 0.0 0.0 0.0 6.375977766061919 -0.6673073274481264 8.970800789280155 37.24574883867261 14.268709100913352 4.267501843058827 56.65024377701117 0.17663620546775857 -23.56264447811286 0.0 0.0 0.0 1.117856424436819 -0.11385507108840692 7.780669753863359 -34.88551453300475 15.331334041492914 -6.730287951049126 -34.9825923413651 1.1337431288811237 43.3462957508247 0.0 0.0 0.0
-475.3183326952539 194.76811431059815 595.1592567382482 -8.176776110777524 -8.098077874258221 -37.419687014137814 -0.7051908138511468 -0.5038235681193884 0.11424710900923966 -15.937338382636975 -1.9984337528234795 11.05782252741991 0.0 0.0 0.0 6.354176460337437 -0.6726688890234911 9.017317133323829 37.22541429395943 14.176451707205489 4.486153150693426 56.648184726313794 0.12068318380047255 -23.45871776831703 0.0 0.0 0.0 1.1246928892970565 -0.11519232819227898 7.8415805912056245 -34.90005717270486 15.059790376913199 -7.30627816453273 -35.553176987373696 1.1440888366094897 43.09926030905002 0.0 0.0 0.0
-474.20091577672093 195.61964547705935 595.2345121281404 -7.89383338895079 -7.821609435550982 -37.63293514862817 -0.6915893457754113 -0.5467092349025183 0.10727504161948329 -15.920731661153082 -2.0118986193569963 11.047352231452228 0.0 0.0 0.0 6.334770395542567 -0.6784118298022613 9.066862394294816 37.1970901858878 14.083025719118048 4.699942453965714 56.65963242062269 0.07311953935409951 -23.370322309921477 0.0 0.0 0.0 1.1322437199711546 -0.11664765587411834 7.9064993895341855 -34.90638451755529 14.785850950631064 -7.8807519245784965 -36.111949634177506 1.1446944190607413 42.82913043814061 0.0 0.0 0.0
-473.1267162241065 196.44644904099312 595.2823803951022 -7.612806172455197 -7.546577203793981 -37.83008492824549 -0.6786023481075585 -0.5902755382117277 0.10037460399062081 -15.905314048589272 -2.0216797290510056 11.037403073075387 0.0 0.0 0.0 6.3175392217225514 -0.6845449829822798 9.119522032797232 37.16053288181224 13.988167016833351 4.909419145686896 56.68521383205249 0.03505527862211055 -23.299581270277923 0.0 0.0 0.0 1.1402642663445093 -0.118203819006633 7.975517067920666 -34.90470851327212 14.509930269106977 -8.453347678303482 -36.65876318590102 1.1353781026595768 42.53635173379666 0.0 0.0 0.0
-472.0955883384883 197.24609341312402 595.3045548550654 -7.333638900117729 -7.273244883754683 -38.01107452992036 -0.666207429402445 -0.6346246299775805 0.09353193737658198 -15.89129218025562 -2.0275084894647146 11.028097935743022 0.0 0.0 0.0 6.302222926343637 -0.6910777640024567 9.175391878533535 37.115565569022856 13.891585168849652 5.115277636438074 56.725397677785 0.007529857489958707 -23.248456602243 0.0 0.0 0.0 1.1484818104453751 -0.1198407106469641 8.048719911167558 -34.89535574101108 14.232525861195116 -9.023625009340849 -37.19366767364386 1.115983104894389 42.22128150327444 0.0 0.0 0.0
-471.10628528063097 198.01639863754363 595.3034572662876 -7.056243194791394 -7.001940238183276 -38.175975045454884 -0.654381989925832 -0.6798193057319691 0.08673662422760853 -15.878846242025412 -2.0291945105646287 11.019547653781688 0.0 0.0 0.0 6.2885297967161415 -0.6980172938939426 9.23455458576802 37.06207294601001 13.792971369839732 5.318331752130173 56.78047020832503 -0.00850832945206024 -23.218702673868542 0.0 0.0 0.0 1.1566012056492652 -0.12153526571293324 8.1261603458368 -34.87878349807613 13.954217568740393 -9.591071990617055 -37.716901006944234 1.0863684731542995 41.8841774585059 0.0 0.0 0.0
-470.15642687986207 198.75551075578716 595.2822105656878 -6.780500666251514 -6.733054400999249 -38.32496618966614 -0.6431043655226582 -0.7258774520962306 0.07998247155016656 -15.868119078603787 -2.0266172186272535 11.011842630510062 0.0 0.0 0.0 6.276146054284276 -0.7053656290745441 9.297056568706017 36.999994641803234 13.692008632933806 5.51948220667827 56.850514744575186 -0.01222181559918152 -23.211822824635245 0.0 0.0 0.0 1.164312291936561 -0.12326151616683668 8.207827501048065 -34.85559277273764 13.675662012971063 -10.155118609372499 -38.22887321830959 1.0464015961402353 41.52519757920444 0.0 0.0 0.0
-469.24250009864284 199.4619671433095 595.2445890137955 -6.506266251023864 -6.467040506474382 -38.45830819055413 -0.6323546297496445 -0.7727680580431194 0.07326807611503611 -15.859206241485195 -2.0197143872680177 11.005044877685748 0.0 0.0 0.0 6.26474670576531 -0.7131172281143596 9.362886518986787 36.929318210710036 13.58838402044961 5.719678367965318 56.935396041448854 -0.002903052401587907 -23.229030018000767 0.0 0.0 0.0 1.171298908665601 -0.1249908086203964 8.293618983631678 -34.82653689518743 13.397582546402818 -10.715155057821116 -38.730144802612074 0.9959529476471962 41.14441084952148 0.0 0.0 0.0
-468.3598940422054 200.13474952412125 595.1949459255193 -6.233372427651239 -6.204411316409869 -38.57631118753554 -0.6221148715916447 -0.8204091465021514 0.06659709504364375 -15.852147145652568 -2.0084684678373304 10.999180672015523 0.0 0.0 0.0 6.254007020814604 -0.7212567804602812 9.43195655875306 36.850072640413494 13.481802568288751 5.919875908083842 57.03475045426188 0.02000775862788828 -23.27121273084058 0.0 0.0 0.0 1.1772492438573192 -0.12669220524279984 8.383315365241533 -34.79252483096232 13.120755178218012 -11.270553593931421 -39.22140001050715 0.9348934734477541 40.74181806096913 0.0 0.0 0.0
-467.50297017849823 200.7733216490704 595.1381200170678 -5.961634610487272 -5.945735552545658 -38.6793035803031 -0.6123688166460262 -0.868667857242683 0.059978167803273176 -15.846917484479821 -1.9928917214060948 10.994234018015629 0.0 0.0 0.0 6.243613967515913 -0.7297575083036021 9.504086968070931 36.762323286719266 13.372002430416918 6.120992203882809 57.147982735742865 0.056906338785905085 -23.33890715103647 0.0 0.0 0.0 1.1818671829712994 -0.1283330866055914 8.476558876362548 -34.75461830177702 12.845991093057613 -11.820692665332396 -39.70341618045433 0.8630948640258767 40.31738139720907 0.0 0.0 0.0
-466.6651670260283 201.37764912996946 595.0793222887579 -5.690857918481656 -5.691632691775546 -38.76760080995662 -0.6031007550638484 -0.9173627651065707 0.05342447077624458 -15.84342303862402 -1.9730112176186552 10.990141099921804 0.0 0.0 0.0 6.233276940185247 -0.7385800300006591 9.578995240944337 36.66616899284937 13.258770640526219 6.3238615224490875 57.27427009258501 0.10800993609153697 -23.432276649828044 0.0 0.0 0.0 1.1848842443166316 -0.12987996833466564 8.57283770079017 -34.714022164763556 12.5741164803251 -12.364982019846622 -40.177030399973425 0.7804327762793862 39.87106107662877 0.0 0.0 0.0
-465.8391370325054 201.94819965569826 595.0240062807504 -5.420845362594155 -5.442766046880359 -38.841476019362126 -0.594293850596283 -0.966268372651297 0.04695292466412121 -15.84149500820896 -1.9488547637655682 10.986785899166014 0.0 0.0 0.0 6.222737194333751 -0.7476718421362574 9.656289975471429 36.561741885237545 13.141958764770775 6.529192096777435 57.41257387922009 0.1733453695452488 -23.55109935394977 0.0 0.0 0.0 1.186071608702957 -0.13129953029137686 8.671477043354239 -34.672067765790096 12.3059504630415 -12.902887587068472 -40.64310496501736 0.6867928870004124 39.40285695819666 0.0 0.0 0.0
-465.01691179313633 202.48592274771283 594.9777254455723 -5.151407333554206 -5.199834027645635 -38.901133929457 -0.585927994555942 -1.0151215894096388 0.04058310794744791 -15.840886997193673 -1.9204387530623077 10.983997146899712 0.0 0.0 0.0 6.211775537266562 -0.7569674397820849 9.735469811285595 36.44921000543974 13.021497620859904 6.737527169606218 57.56165900218597 0.2527400910570587 -23.694764453323014 0.0 0.0 0.0 1.1852516695290205 -0.13255983679128686 8.771637800237132 -34.630189306756925 12.042281962804168 -13.433955006941856 -41.10249323047245 0.5820794933088822 38.912852762016335 0.0 0.0 0.0
-464.1900902546204 202.99220928833458 594.9459822006846 -4.882372133843203 -4.963559551999602 -38.94668908501225 -0.5779774111557519 -1.0636299081169558 0.034335949818552564 -15.841273776501625 -1.8877587765623858 10.981546767706961 0.0 0.0 0.0 6.2002179882296025 -0.7663890558522444 9.815927331416884 36.328782584623994 12.897410189205306 6.949211941137315 57.72012075620581 0.34581687479531786 -23.862277635473635 0.0 0.0 0.0 1.1823084618709045 -0.13363170090591966 8.872323226522822 -34.58989361611554 11.78384635533509 -13.957830806949676 -41.55600748827521 0.4662262317061153 38.40126045474235 0.0 0.0 0.0
